<svg width="22" height="17" fill="none" xmlns="http://www.w3.org/2000/svg"><path fill-rule="evenodd" clip-rule="evenodd" d="M2.705 1.545c-.64 0-1.16.52-1.16 1.16v11.59c0 .64.52 1.16 1.16 1.16h16.227c.64 0 1.159-.52 1.159-1.16V2.706c0-.64-.519-1.16-1.16-1.16H2.706zM0 2.705A2.705 2.705 0 0 1 2.705 0h16.227a2.705 2.705 0 0 1 2.704 2.705v11.59A2.705 2.705 0 0 1 18.932 17H2.705A2.705 2.705 0 0 1 0 14.296V2.705z" fill="#FF5E14"/><path fill-rule="evenodd" clip-rule="evenodd" d="M3.254 3.39a.773.773 0 0 1 1.084-.136l6.48 5.04 6.48-5.04a.773.773 0 0 1 .95 1.22l-6.955 5.409a.773.773 0 0 1-.95 0L3.39 4.473a.773.773 0 0 1-.135-1.084z" fill="#FF5E14"/></svg>