<svg width="28" height="28" fill="none" xmlns="http://www.w3.org/2000/svg"><path d="M22.773 3.08c-2.276-.368-4.828-.573-7.439-.573-.225 0-.45 0-.672.004-4.418.052-8.047.62-10.593 1.611A13.977 13.977 0 0 1 14 0a13.96 13.96 0 0 1 8.773 3.08zm.956 20.603c-.81.78-1.714 1.462-2.693 2.03A13.963 13.963 0 0 1 14 27.6a13.939 13.939 0 0 1-8.575-2.928c2.359.272 4.859.41 7.208.41 1.857 0 3.56-.08 5.105-.232 2.369-.232 4.37-.63 5.99-1.168zM28 14.942a13.626 13.626 0 0 1-.146 2.01 5.53 5.53 0 0 0-.987-.878c-1.736-1.238-4.724-2.228-9.219-3.239l-2.897-.662a46.394 46.394 0 0 1-1.046-.246C11.17 11.172 9.838 10.3 9.838 8.86c0-1.12 1.09-2.003 2.76-2.51.87-.181 1.857-.28 2.902-.28l.304.002c1.126.014 2.444.11 3.826.298 2.206.304 4.578.841 6.544 1.67A13.84 13.84 0 0 1 28 14.942zm-8.594 3.98c0 1.673-2.38 2.938-6.779 2.938-.467 0-.96-.014-1.473-.043A44.147 44.147 0 0 1 6.57 21.3a54.192 54.192 0 0 1-4.436-.904A13.846 13.846 0 0 1 0 12.985c0-1.07.12-2.109.349-3.108.447.913 1.29 1.694 2.495 2.387 1.96 1.129 4.882 2.023 8.612 2.872l2.619.591c3.726.829 5.331 1.566 5.331 3.195z" fill="#FF5E14"/></svg>